HIERARCHY
ROOT Hips
{
	OFFSET 0.00000 0.00000 0.00000
	CHANNELS 6 Xposition Yposition Zposition Zrotation Yrotation Xrotation 
	JOINT LHipJoint
	{
		OFFSET 0 0 0
		CHANNELS 3 Zrotation Yrotation Xrotation
		JOINT LeftUpLeg
		{
			OFFSET 1.82298 -1.58346 0.87084
			CHANNELS 3 Zrotation Yrotation Xrotation
			JOINT LeftLeg
			{
				OFFSET 2.43790 -6.69809 0.00000
				CHANNELS 3 Zrotation Yrotation Xrotation
				JOINT LeftFoot
				{
					OFFSET 2.59288 -7.12389 0.00000
					CHANNELS 3 Zrotation Yrotation Xrotation
					JOINT LeftToeBase
					{
						OFFSET 0.14552 -0.39981 2.13160
						CHANNELS 3 Zrotation Yrotation Xrotation
						End Site
						{
							OFFSET 0.00000 -0.00000 1.09427
						}
					}
				}
			}
		}
	}
	JOINT RHipJoint
	{
		OFFSET 0 0 0
		CHANNELS 3 Zrotation Yrotation Xrotation
		JOINT RightUpLeg
		{
			OFFSET -1.77229 -1.58346 0.87084
			CHANNELS 3 Zrotation Yrotation Xrotation
			JOINT RightLeg
			{
				OFFSET -2.50703 -6.88801 0.00000
				CHANNELS 3 Zrotation Yrotation Xrotation
				JOINT RightFoot
				{
					OFFSET -2.61620 -7.18796 0.00000
					CHANNELS 3 Zrotation Yrotation Xrotation
					JOINT RightToeBase
					{
						OFFSET -0.15190 -0.41735 2.15974
						CHANNELS 3 Zrotation Yrotation Xrotation
						End Site
						{
							OFFSET -0.00000 -0.00000 1.10919
						}
					}
				}
			}
		}
	}
	JOINT LowerBack
	{
		OFFSET 0 0 0
		CHANNELS 3 Zrotation Yrotation Xrotation
		JOINT Spine
		{
			OFFSET -0.03602 2.12423 -0.30249
			CHANNELS 3 Zrotation Yrotation Xrotation
			JOINT Spine1
			{
				OFFSET 0.02717 2.10043 0.12912
				CHANNELS 3 Zrotation Yrotation Xrotation
				JOINT Neck
				{
					OFFSET 0 0 0
					CHANNELS 3 Zrotation Yrotation Xrotation
					JOINT Neck1
					{
						OFFSET -0.06371 1.88656 0.11602
						CHANNELS 3 Zrotation Yrotation Xrotation
						JOINT Head
						{
							OFFSET 0.08208 1.87759 -0.11505
							CHANNELS 3 Zrotation Yrotation Xrotation
							End Site
							{
								OFFSET 0.03382 1.93090 -0.05483
							}
						}
					}
				}
				JOINT LeftShoulder
				{
					OFFSET 0 0 0
					CHANNELS 3 Zrotation Yrotation Xrotation
					JOINT LeftArm
					{
						OFFSET 3.30903 1.40357 0.20156
						CHANNELS 3 Zrotation Yrotation Xrotation
						JOINT LeftForeArm
						{
							OFFSET 5.43301 -0.00000 0.00000
							CHANNELS 3 Zrotation Yrotation Xrotation
							JOINT LeftHand
							{
								OFFSET 3.15936 -0.00000 0.00000
								CHANNELS 3 Zrotation Yrotation Xrotation
								JOINT LeftFingerBase
								{
									OFFSET 0 0 0
									CHANNELS 3 Zrotation Yrotation Xrotation
									JOINT LeftHandIndex1
									{
										OFFSET 0.71283 -0.00000 0.00000
										CHANNELS 3 Zrotation Yrotation Xrotation
										End Site
										{
											OFFSET 0.57470 -0.00000 0.00000
										}
									}
								}
								JOINT LThumb
								{
									OFFSET 0 0 0
									CHANNELS 3 Zrotation Yrotation Xrotation
									End Site
									{
										OFFSET 0.58347 -0.00000 0.58347
									}
								}
							}
						}
					}
				}
				JOINT RightShoulder
				{
					OFFSET 0 0 0
					CHANNELS 3 Zrotation Yrotation Xrotation
					JOINT RightArm
					{
						OFFSET -3.12947 1.60037 -0.00464
						CHANNELS 3 Zrotation Yrotation Xrotation
						JOINT RightForeArm
						{
							OFFSET -5.34194 -0.00000 0.00000
							CHANNELS 3 Zrotation Yrotation Xrotation
							JOINT RightHand
							{
								OFFSET -3.19351 -0.00000 0.00000
								CHANNELS 3 Zrotation Yrotation Xrotation
								JOINT RightFingerBase
								{
									OFFSET 0 0 0
									CHANNELS 3 Zrotation Yrotation Xrotation
									JOINT RightHandIndex1
									{
										OFFSET -0.74386 -0.00000 0.00000
										CHANNELS 3 Zrotation Yrotation Xrotation
										End Site
										{
											OFFSET -0.59972 -0.00000 0.00000
										}
									}
								}
								JOINT RThumb
								{
									OFFSET 0 0 0
									CHANNELS 3 Zrotation Yrotation Xrotation
									End Site
									{
										OFFSET -0.60888 -0.00000 0.60888
									}
								}
							}
						}
					}
				}
			}
		}
	}
}
MOTION
Frames: 7
Frame Time: .0083333
-1.3245 14.0009 25.3568 0.2243 -51.9903 -2.9478 0.0000 0.0000 0.0000 3.1283 13.7580 -48.1202 4.4042 12.6797 38.1810 1.3061 15.0929 21.5701 0.2714 3.3511 9.2578 0.0000 0.0000 0.0000 18.1065 -8.7983 -36.4583 -16.7116 -19.7387 80.3450 -4.1667 -5.0491 -40.5416 -0.0066 0.5244 -1.4410 -0.3499 7.5145 16.9650 -1.1931 9.8325 -3.1321 -3.8293 4.5464 -12.8041 -0.1279 8.2121 -6.1682 2.1794 10.8274 10.8339 1.3816 5.4341 4.5545 -0.0000 0.0000 0.0000 -74.5297 -33.9767 21.7622 118.9144 -56.5924 -84.7541 -0.0000 -0.0000 6.1606 53.8851 39.7242 41.2164 -7.1250 0.0000 -0.0000 57.8520 80.4670 49.3502 -0.0000 0.0000 0.0000 75.1892 10.4753 85.6943 -131.2973 52.4587 -94.8582 0.0000 -0.0000 -58.8646 9.0131 -13.7407 -2.1577 7.1250 -0.0000 -0.0000 31.7530 -41.3884 3.1971
-1.3037 13.9434 25.5693 0.6448 -53.2085 -3.5285 0.0000 0.0000 0.0000 2.8365 14.7586 -47.8945 4.7217 13.0633 39.6060 1.2144 12.8216 20.3627 0.2008 2.8852 7.9593 0.0000 0.0000 0.0000 16.8999 -8.6656 -36.1093 -16.9645 -19.7776 81.0931 -4.2368 -4.8757 -40.7934 -0.0200 0.9119 -2.5065 -0.0220 7.6314 16.9242 -1.3438 10.0407 -3.0992 -4.2103 4.6206 -12.6457 -0.0346 8.4859 -6.0302 2.0030 11.2067 10.8454 1.3217 5.6153 4.5431 0.0000 0.0000 0.0000 -75.7065 -33.0429 19.1274 115.1899 -57.4611 -81.6291 -0.0000 -0.0000 4.0592 53.4521 38.4134 39.9702 -7.1250 0.0000 -0.0000 52.1701 79.2599 43.1206 0.0000 0.0000 0.0000 74.3527 7.7312 82.8265 -132.5018 51.9353 -95.8100 0.0000 -0.0000 -74.2285 7.4891 -17.6956 -2.2882 7.1250 -0.0000 -0.0000 32.3821 -44.9685 0.0283
-1.2867 13.8792 25.7662 1.0381 -54.1369 -4.0749 0.0000 0.0000 0.0000 2.4148 15.6526 -47.9838 5.1042 13.5002 41.2710 1.0558 10.6155 18.7053 0.1302 2.3260 6.4075 0.0000 0.0000 0.0000 15.8057 -8.6064 -35.8745 -17.2373 -19.8160 81.8986 -4.3049 -4.9032 -41.1132 -0.0350 1.2074 -3.3198 0.2342 7.6600 16.9432 -1.4667 10.1178 -3.0635 -4.4969 4.6377 -12.5415 0.0504 8.7580 -5.8847 1.8344 11.5838 10.8580 1.2652 5.7954 4.5311 0.0000 0.0000 0.0000 -76.3881 -32.2019 16.9857 111.5178 -58.1761 -78.5209 -0.0000 -0.0000 4.0475 52.9359 37.4685 38.8479 -7.1250 0.0000 -0.0000 47.9350 78.3031 38.5796 0.0000 0.0000 0.0000 73.6140 5.5081 80.6952 -132.6082 51.8878 -95.8937 0.0000 -0.0000 -84.3835 5.7078 -20.2681 -1.9830 7.1250 -0.0000 -0.0000 32.2415 -47.4035 -2.1255
-1.2735 13.8110 25.9455 1.3754 -54.7887 -4.5672 0.0000 0.0000 0.0000 1.9407 16.3839 -48.2992 5.5268 13.9536 43.0518 0.8629 8.7718 16.7636 0.0784 1.8063 4.9707 0.0000 0.0000 0.0000 14.8654 -8.6571 -35.7422 -17.5224 -19.8522 82.7388 -4.3692 -5.1519 -41.5007 -0.0454 1.3747 -3.7803 0.3752 7.6070 17.0173 -1.5525 10.0647 -3.0173 -4.6565 4.6008 -12.4926 0.1289 9.0031 -5.7503 1.7294 11.9179 10.8405 1.2275 5.9579 4.5069 0.0000 -0.0000 0.0000 -76.5867 -31.3809 15.3469 108.1669 -58.7155 -75.6651 -0.0000 -0.0000 5.7280 52.3283 36.9598 37.9089 -7.1250 0.0000 -0.0000 44.7046 77.7073 35.3277 0.0000 -0.0000 0.0000 72.9670 3.8656 79.5104 -132.1852 52.0753 -95.5604 0.0000 -0.0000 -89.6190 3.9273 -21.7130 -1.4549 7.1250 -0.0000 -0.0000 31.5163 -48.8948 -3.3320
-1.2636 13.7421 26.1069 1.6088 -55.1970 -4.9692 0.0000 0.0000 0.0000 1.5041 16.9167 -48.7472 5.9671 14.3964 44.8494 0.6750 7.3870 14.7621 0.0467 1.3951 3.8366 0.0000 0.0000 0.0000 14.1164 -8.8312 -35.6882 -17.8078 -19.8844 83.5785 -4.4258 -5.6204 -41.9394 -0.0474 1.4047 -3.8630 0.3941 7.4824 17.1430 -1.5962 9.8938 -2.9577 -4.6824 4.5162 -12.4958 0.2000 9.1941 -5.6269 1.7282 12.1679 10.7444 1.2170 6.0848 4.4498 0.0000 0.0000 0.0000 -76.3481 -30.5623 14.1828 105.3312 -59.0930 -73.2368 -0.0000 -0.0000 8.5509 51.6821 36.8997 37.2265 -7.1250 0.0000 -0.0000 42.3293 77.5276 33.1961 0.0000 0.0000 0.0000 72.4058 2.7988 79.2216 -131.6034 52.3280 -95.1007 0.0000 -0.0000 -90.8127 2.4787 -22.4405 -0.9467 7.1250 -0.0000 -0.0000 30.6628 -49.7378 -3.9106
-1.2559 13.6757 26.2517 1.6833 -55.4111 -5.2320 0.0000 0.0000 0.0000 1.1886 17.2465 -49.2529 6.4084 14.8128 46.5995 0.5166 6.3975 12.8946 0.0285 1.0902 2.9969 0.0000 0.0000 0.0000 13.5850 -9.1204 -35.6898 -18.0802 -19.9114 84.3788 -4.4705 -6.2756 -42.4039 -0.0412 1.3105 -3.6035 0.3189 7.3021 17.3136 -1.5949 9.6327 -2.8876 -4.5914 4.3956 -12.5435 0.2557 9.3119 -5.5048 1.8475 12.3072 10.5319 1.2363 6.1637 4.3420 0.0000 -0.0000 0.0000 -75.7486 -29.7731 13.4493 103.0992 -59.3416 -71.3191 -0.0000 -0.0000 11.8767 51.1103 37.2029 36.8557 -7.1250 0.0000 -0.0000 40.8246 77.7191 32.0976 0.0000 -0.0000 0.0000 71.9228 2.2355 79.6614 -131.0259 52.5733 -94.6429 0.0000 -0.0000 -88.9999 1.7895 -22.7332 -0.6917 7.1250 -0.0000 -0.0000 30.2213 -50.0967 -4.1302
-1.2493 13.6142 26.3823 1.5578 -55.4894 -5.3090 0.0000 0.0000 0.0000 1.0518 17.3986 -49.7756 6.8421 15.1975 48.2747 0.3951 5.6612 11.2765 0.0169 0.8397 2.3080 0.0000 0.0000 0.0000 13.2779 -9.4987 -35.7350 -18.3281 -19.9328 85.1064 -4.4992 -7.0698 -42.8639 -0.0305 1.1282 -3.1015 0.1982 7.0886 17.5164 -1.5484 9.3224 -2.8154 -4.4171 4.2554 -12.6253 0.2891 9.3477 -5.3641 2.0700 12.3281 10.1857 1.2784 6.1892 4.1747 -0.0000 -0.0000 0.0000 -74.8879 -29.0677 13.0989 101.4381 -59.4998 -69.8890 -0.0000 -0.0000 15.0833 50.7626 37.7167 36.8365 -7.1250 0.0000 -0.0000 40.3975 78.1689 32.0869 -0.0000 -0.0000 0.0000 71.5060 2.0500 80.5804 -130.5254 52.7814 -94.2448 0.0000 -0.0000 -85.4623 2.0857 -22.7005 -0.8052 7.1250 -0.0000 -0.0000 30.4664 -50.0227 -4.1102
